<svg width="629" height="508" viewBox="0 0 629 508" fill="none" xmlns="http://www.w3.org/2000/svg">
<path d="M251.033 389.656L250.585 390.36L250.59 390.363L251.033 389.656ZM207.665 338.782L206.91 339.136L206.912 339.14L207.665 338.782ZM207.665 175.736L208.419 176.094L208.42 176.09L207.665 175.736ZM251.033 124.445L250.59 123.738L250.585 123.741L251.033 124.445ZM376.133 124.445L376.581 123.741L376.133 124.445ZM419.501 175.736L418.746 176.09L418.751 176.101L419.501 175.736ZM419.501 338.782L418.749 338.42L418.747 338.424L419.501 338.782ZM376.133 389.656L375.685 388.952L376.133 389.656ZM349.028 349.207L349.516 349.883C349.52 349.88 349.524 349.877 349.528 349.874L349.028 349.207ZM372.38 315.013L371.601 314.716L371.596 314.728L372.38 315.013ZM372.38 199.088L371.596 199.373C371.598 199.378 371.6 199.384 371.603 199.39L372.38 199.088ZM349.028 165.311L348.527 165.978C348.532 165.981 348.536 165.984 348.54 165.987L349.028 165.311ZM278.555 165.311L279.043 165.987L279.047 165.984L278.555 165.311ZM254.786 199.088L254.007 198.79L254.004 198.798L254.786 199.088ZM254.786 315.013L254.002 315.298L254.007 315.311L254.786 315.013ZM278.555 349.207L278.055 349.874C278.062 349.88 278.069 349.885 278.076 349.89L278.555 349.207ZM313.583 406.336C290.658 406.336 269.963 400.538 251.476 388.949L250.59 390.363C269.356 402.126 290.361 408.004 313.583 408.004V406.336ZM251.481 388.952C233.282 377.371 218.924 360.542 208.419 338.424L206.912 339.14C217.534 361.502 232.088 378.589 250.585 390.36L251.481 388.952ZM208.42 338.428C197.921 316.048 192.653 288.932 192.653 257.05H190.985C190.985 289.109 196.282 316.481 206.91 339.136L208.42 338.428ZM192.653 257.05C192.653 225.169 197.921 198.193 208.419 176.094L206.912 175.378C196.282 197.758 190.985 224.992 190.985 257.05H192.653ZM208.42 176.09C218.927 153.694 233.285 136.728 251.481 125.148L250.585 123.741C232.086 135.514 217.532 152.741 206.91 175.382L208.42 176.09ZM251.476 125.151C269.963 113.563 290.658 107.765 313.583 107.765V106.097C290.361 106.097 269.356 111.975 250.59 123.738L251.476 125.151ZM313.583 107.765C336.789 107.765 357.481 113.564 375.685 125.148L376.581 123.741C358.089 111.974 337.081 106.097 313.583 106.097V107.765ZM375.685 125.148C393.881 136.728 408.239 153.694 418.746 176.09L420.256 175.382C409.634 152.741 395.08 135.514 376.581 123.741L375.685 125.148ZM418.751 176.101C429.524 198.199 434.93 225.172 434.93 257.05H436.598C436.598 224.99 431.162 197.752 420.25 175.37L418.751 176.101ZM434.93 257.05C434.93 288.929 429.524 316.042 418.749 338.42L420.252 339.144C431.161 316.486 436.598 289.112 436.598 257.05H434.93ZM418.747 338.424C408.242 360.542 393.884 377.371 375.685 388.952L376.581 390.36C395.078 378.589 409.632 361.502 420.254 339.14L418.747 338.424ZM375.685 388.952C357.481 400.537 336.789 406.336 313.583 406.336V408.004C337.081 408.004 358.089 402.127 376.581 390.36L375.685 388.952ZM313.583 360.883C327.361 360.883 339.351 357.225 349.516 349.883L348.54 348.531C338.688 355.646 327.049 359.215 313.583 359.215V360.883ZM349.528 349.874C359.7 342.246 367.565 330.695 373.164 315.298L371.596 314.728C366.075 329.911 358.372 341.156 348.527 348.54L349.528 349.874ZM373.159 315.311C379.045 299.895 381.971 280.464 381.971 257.05H380.303C380.303 280.341 377.39 299.552 371.601 314.716L373.159 315.311ZM381.971 257.05C381.971 233.361 379.046 213.928 373.157 198.785L371.603 199.39C377.39 214.272 380.303 233.48 380.303 257.05H381.971ZM373.164 198.803C367.564 183.405 359.697 171.987 349.516 164.635L348.54 165.987C358.375 173.09 366.075 184.19 371.596 199.373L373.164 198.803ZM349.528 164.644C339.363 157.02 327.368 153.218 313.583 153.218V154.886C327.041 154.886 338.677 158.59 348.527 165.978L349.528 164.644ZM313.583 153.218C300.345 153.218 288.496 157.024 278.063 164.637L279.047 165.984C289.186 158.586 300.689 154.886 313.583 154.886V153.218ZM278.067 164.635C267.89 171.984 259.884 183.397 254.007 198.79L255.565 199.385C261.364 184.199 269.204 173.093 279.043 165.987L278.067 164.635ZM254.004 198.798C248.398 213.936 245.612 233.364 245.612 257.05H247.28C247.28 233.477 250.055 214.264 255.568 199.377L254.004 198.798ZM245.612 257.05C245.612 280.461 248.398 299.887 254.002 315.298L255.57 314.728C250.054 299.56 247.28 280.344 247.28 257.05H245.612ZM254.007 315.311C259.884 330.703 267.887 342.249 278.055 349.874L279.056 348.54C269.207 341.153 261.364 329.903 255.565 314.716L254.007 315.311ZM278.076 349.89C288.508 357.22 300.353 360.883 313.583 360.883V359.215C300.681 359.215 289.174 355.65 279.035 348.525L278.076 349.89Z" fill="#161616" fill-opacity="0.2"/>
<path d="M358.619 336.697H357.785C357.785 337.158 358.158 337.531 358.619 337.531V336.697ZM358.619 299.167L357.956 298.661C357.845 298.806 357.785 298.984 357.785 299.167H358.619ZM502.483 111.101V110.267C502.224 110.267 501.979 110.388 501.821 110.594L502.483 111.101ZM560.446 111.101L561.112 111.603C561.303 111.35 561.334 111.012 561.193 110.729C561.052 110.446 560.763 110.267 560.446 110.267V111.101ZM418.667 299.167L418.421 299.964C418.757 300.068 419.121 299.95 419.333 299.669L418.667 299.167ZM391.562 290.827V289.993C391.149 289.993 390.798 290.295 390.737 290.703C390.676 291.111 390.922 291.503 391.317 291.624L391.562 290.827ZM622.996 290.827H623.83C623.83 290.367 623.457 289.993 622.996 289.993V290.827ZM622.996 336.697V337.531C623.457 337.531 623.83 337.158 623.83 336.697H622.996ZM518.746 403H517.912C517.912 403.461 518.286 403.834 518.746 403.834V403ZM518.746 336.697L517.913 336.667C517.913 336.677 517.912 336.687 517.912 336.697H518.746ZM520.414 290.827L521.248 290.858C521.248 290.848 521.248 290.837 521.248 290.827H520.414ZM520.414 232.031V231.197C519.954 231.197 519.58 231.57 519.58 232.031H520.414ZM571.288 232.031H572.122C572.122 231.57 571.749 231.197 571.288 231.197V232.031ZM571.288 403V403.834C571.749 403.834 572.122 403.461 572.122 403H571.288ZM359.453 336.697V299.167H357.785V336.697H359.453ZM359.281 299.674L503.146 111.608L501.821 110.594L357.956 298.661L359.281 299.674ZM502.483 111.935H560.446V110.267H502.483V111.935ZM559.78 110.599L418.001 298.665L419.333 299.669L561.112 111.603L559.78 110.599ZM418.912 298.37L391.807 290.03L391.317 291.624L418.421 299.964L418.912 298.37ZM391.562 291.661H622.996V289.993H391.562V291.661ZM622.162 290.827V336.697H623.83V290.827H622.162ZM622.996 335.863H358.619V337.531H622.996V335.863ZM519.58 403V336.697H517.912V403H519.58ZM519.58 336.728L521.248 290.858L519.581 290.797L517.913 336.667L519.58 336.728ZM521.248 290.827V232.031H519.58V290.827H521.248ZM520.414 232.865H571.288V231.197H520.414V232.865ZM570.454 232.031V403H572.122V232.031H570.454ZM571.288 402.166H518.746V403.834H571.288V402.166Z" fill="#161616" fill-opacity="0.2"/>
<path d="M14.178 336.697H13.344C13.344 337.158 13.7174 337.531 14.178 337.531V336.697ZM14.178 299.167L13.5155 298.661C13.4043 298.806 13.344 298.984 13.344 299.167H14.178ZM158.043 111.101V110.267C157.783 110.267 157.538 110.388 157.38 110.594L158.043 111.101ZM216.005 111.101L216.671 111.603C216.862 111.35 216.893 111.012 216.752 110.729C216.611 110.446 216.322 110.267 216.005 110.267V111.101ZM74.2258 299.167L73.9805 299.964C74.3161 300.068 74.6804 299.95 74.8917 299.669L74.2258 299.167ZM47.1209 290.827V289.993C46.7081 289.993 46.3575 290.295 46.2961 290.703C46.2348 291.111 46.4811 291.503 46.8756 291.624L47.1209 290.827ZM278.555 290.827H279.389C279.389 290.367 279.016 289.993 278.555 289.993V290.827ZM278.555 336.697V337.531C279.016 337.531 279.389 337.158 279.389 336.697H278.555ZM174.305 403H173.471C173.471 403.461 173.845 403.834 174.305 403.834V403ZM174.305 336.697L173.472 336.667C173.472 336.677 173.471 336.687 173.471 336.697H174.305ZM175.973 290.827L176.807 290.858C176.807 290.848 176.807 290.837 176.807 290.827H175.973ZM175.973 232.031V231.197C175.513 231.197 175.139 231.57 175.139 232.031H175.973ZM226.847 232.031H227.681C227.681 231.57 227.308 231.197 226.847 231.197V232.031ZM226.847 403V403.834C227.308 403.834 227.681 403.461 227.681 403H226.847ZM15.012 336.697V299.167H13.344V336.697H15.012ZM14.8404 299.674L158.705 111.608L157.38 110.594L13.5155 298.661L14.8404 299.674ZM158.043 111.935H216.005V110.267H158.043V111.935ZM215.339 110.599L73.5598 298.665L74.8917 299.669L216.671 111.603L215.339 110.599ZM74.471 298.37L47.3661 290.03L46.8756 291.624L73.9805 299.964L74.471 298.37ZM47.1209 291.661H278.555V289.993H47.1209V291.661ZM277.721 290.827V336.697H279.389V290.827H277.721ZM278.555 335.863H14.178V337.531H278.555V335.863ZM175.139 403V336.697H173.471V403H175.139ZM175.139 336.728L176.807 290.858L175.14 290.797L173.472 336.667L175.139 336.728ZM176.807 290.827V232.031H175.139V290.827H176.807ZM175.973 232.865H226.847V231.197H175.973V232.865ZM226.013 232.031V403H227.681V232.031H226.013ZM226.847 402.166H174.305V403.834H226.847V402.166Z" fill="#161616" fill-opacity="0.2"/>
</svg>
