<svg width="48" height="48" viewBox="0 0 48 48" fill="none" xmlns="http://www.w3.org/2000/svg">
<path d="M24 16L16 24L18.8 26.8L22 23.6L22 32L26 32L26 23.6L29.2 26.8L32 24L24 16ZM24 4C26.7667 4 29.3667 4.52533 31.8 5.576C34.2333 6.62667 36.35 8.05133 38.15 9.85C39.95 11.65 41.3747 13.7667 42.424 16.2C43.4733 18.6333 43.9987 21.2333 44 24C44 26.7667 43.4747 29.3667 42.424 31.8C41.3733 34.2333 39.9487 36.35 38.15 38.15C36.35 39.95 34.2333 41.3747 31.8 42.424C29.3667 43.4733 26.7667 43.9987 24 44C21.2333 44 18.6333 43.4747 16.2 42.424C13.7667 41.3733 11.65 39.9487 9.85 38.15C8.05 36.35 6.62467 34.2333 5.574 31.8C4.52333 29.3667 3.99867 26.7667 4 24C4 21.2333 4.52533 18.6333 5.576 16.2C6.62666 13.7667 8.05133 11.65 9.85 9.85C11.65 8.05 13.7667 6.62467 16.2 5.574C18.6333 4.52334 21.2333 3.99867 24 4ZM24 8C19.5333 8 15.75 9.55 12.65 12.65C9.55 15.75 8 19.5333 8 24C8 28.4667 9.55 32.25 12.65 35.35C15.75 38.45 19.5333 40 24 40C28.4667 40 32.25 38.45 35.35 35.35C38.45 32.25 40 28.4667 40 24C40 19.5333 38.45 15.75 35.35 12.65C32.25 9.55 28.4667 8 24 8Z" fill="white"/>
</svg>
