<svg width="116" height="50" viewBox="0 0 116 50" fill="none" xmlns="http://www.w3.org/2000/svg">
<path d="M42.5237 29.4797L49.4104 44.5483L55.2668 29.4209C55.502 28.7733 56.032 28.4495 56.856 28.4495C57.7975 28.4495 58.4451 28.8909 58.4451 29.686C58.4451 29.8922 58.4163 30.0974 58.2389 30.5099L51.2635 47.903C50.8809 48.7558 50.4983 49.1096 49.5568 49.1096C48.5565 49.1096 48.1151 48.6682 47.7614 47.903L40.8747 33.0107L33.988 47.903C33.6353 48.6682 33.2228 49.1096 32.1926 49.1096C31.2511 49.1096 30.8685 48.7569 30.4859 47.903L23.5115 30.5099C23.3352 30.0974 23.3053 29.8912 23.3053 29.686C23.3053 28.8909 23.923 28.4495 24.8945 28.4495C25.7483 28.4495 26.2186 28.7733 26.4836 29.4209L32.3112 44.5184L39.2278 29.4797C39.5217 28.862 39.9342 28.4495 40.8757 28.4495C41.7874 28.4495 42.2298 28.861 42.5237 29.4797Z" fill="#161616"/>
<path d="M32.2545 0.464469C38.0522 0.464469 41.2016 3.70157 41.2016 10.4119C41.2016 17.0923 38.0821 20.3305 32.2545 20.3305H25.2502C24.1324 20.3305 23.6023 19.8004 23.6023 18.7114V2.0825C23.6023 0.993501 24.1324 0.46344 25.2502 0.46344H32.2545V0.464469ZM27.0755 16.5045C27.0755 16.7696 27.1931 16.8572 27.4581 16.8572H32.2555C36.1114 16.8572 37.7294 14.9443 37.7294 10.382C37.7294 5.84966 36.1114 3.93669 32.2555 3.93669H27.4581C27.1931 3.93669 27.0755 4.02538 27.0755 4.28938V16.5045Z" fill="#161616"/>
<path d="M46.1166 20.3294H42.2906L49.266 2.67134C50.0013 0.817156 51.3553 0.110748 53.4457 0.110748C55.5061 0.110748 56.8591 0.817156 57.5655 2.67134L64.2759 20.3294H60.42L54.3872 4.34815C54.2109 3.8779 53.8871 3.67165 53.4158 3.67165C52.9445 3.67165 52.6207 3.8779 52.4155 4.34815L46.1166 20.3294Z" fill="#161616"/>
<path d="M78.7268 0.464478V3.93773H72.9291V20.3305H69.427V3.93773H63.6293V0.464478H78.7268Z" fill="#161616"/>
<path d="M81.9351 20.3294H78.1091L85.0845 2.67134C85.8198 0.817156 87.1738 0.110748 89.2642 0.110748C91.3246 0.110748 92.6776 0.817156 93.384 2.67134L100.094 20.3294H96.2385L90.2047 4.34815C90.0283 3.8779 89.7045 3.67165 89.2332 3.67165C88.7619 3.67165 88.4381 3.8779 88.2329 4.34815L81.9351 20.3294Z" fill="#161616"/>
<path d="M61.2719 48.7115H57.4459L64.4203 31.0534C65.1566 29.1992 66.5096 28.4928 68.5999 28.4928C70.6604 28.4928 72.0144 29.1992 72.7198 31.0534L79.4301 48.7115H75.5743L69.5415 32.7313C69.3651 32.261 69.0413 32.0548 68.57 32.0548C68.0998 32.0548 67.776 32.261 67.5697 32.7313L61.2719 48.7115Z" fill="#161616"/>
<path d="M81.6668 28.8466L87.2293 37.3523L92.8507 28.8466H96.9705L88.966 40.148V48.7126H85.4638V40.148L77.4583 28.8466H81.6668Z" fill="#161616"/>
<path d="M114.011 28.8466V32.3198H103.828C102.033 32.3198 101.239 33.2912 101.239 34.6742C101.239 35.8807 101.857 37.0285 104.182 37.0285H108.832C114.247 37.0285 115.513 40.0305 115.513 42.885C115.513 46.2396 113.717 48.7126 109.185 48.7126H98.1195V45.2403H109.302C111.185 45.2403 112.039 44.2101 112.039 42.7674C112.039 41.4732 111.363 40.2955 108.92 40.2955H104.299C99.0012 40.2955 97.7657 37.3224 97.7657 34.5566C97.7657 31.2597 99.5312 28.8466 103.946 28.8466H114.011Z" fill="#161616"/>
<path d="M3.61256 49.1715H1.04165C0.813744 49.1715 0.62915 48.9869 0.62915 48.759V0.556268C0.62915 0.328362 0.813744 0.143768 1.04165 0.143768H3.61256C3.84046 0.143768 4.02506 0.328362 4.02506 0.556268V48.76C4.02506 48.9879 3.84046 49.1715 3.61256 49.1715Z" fill="#161616"/>
<path d="M9.87745 49.1715H7.30654C7.07864 49.1715 6.89404 48.9869 6.89404 48.759V0.556268C6.89404 0.328362 7.07864 0.143768 7.30654 0.143768H9.87745C10.1054 0.143768 10.2899 0.328362 10.2899 0.556268V48.76C10.2899 48.9879 10.1054 49.1715 9.87745 49.1715Z" fill="#161616"/>
<path d="M16.1484 49.1714H13.5775C13.3496 49.1714 13.165 48.9868 13.165 48.7589V0.556238C13.165 0.328332 13.3496 0.143738 13.5775 0.143738H16.1484C16.3764 0.143738 16.5609 0.328332 16.5609 0.556238V48.76C16.5609 48.9879 16.3764 49.1714 16.1484 49.1714Z" fill="#161616"/>
</svg>
