<svg width="116" height="50" viewBox="0 0 116 50" fill="none" xmlns="http://www.w3.org/2000/svg">
<path d="M42.5237 29.4799L49.4104 44.5486L55.2668 29.4211C55.502 28.7735 56.032 28.4497 56.856 28.4497C57.7975 28.4497 58.4451 28.8911 58.4451 29.6862C58.4451 29.8924 58.4163 30.0976 58.2389 30.5101L51.2635 47.9032C50.8809 48.7561 50.4983 49.1098 49.5568 49.1098C48.5565 49.1098 48.1151 48.6684 47.7614 47.9032L40.8747 33.0109L33.988 47.9032C33.6353 48.6684 33.2228 49.1098 32.1926 49.1098C31.2511 49.1098 30.8685 48.7571 30.4859 47.9032L23.5115 30.5101C23.3352 30.0976 23.3053 29.8914 23.3053 29.6862C23.3053 28.8911 23.923 28.4497 24.8945 28.4497C25.7483 28.4497 26.2186 28.7735 26.4836 29.4211L32.3112 44.5186L39.2278 29.4799C39.5217 28.8622 39.9342 28.4497 40.8757 28.4497C41.7874 28.4497 42.2298 28.8612 42.5237 29.4799Z" fill="#FFFDFE"/>
<path d="M32.2545 0.464408C38.0522 0.464408 41.2016 3.7015 41.2016 10.4118C41.2016 17.0923 38.0821 20.3304 32.2545 20.3304H25.2502C24.1324 20.3304 23.6023 19.8003 23.6023 18.7113V2.08244C23.6023 0.99344 24.1324 0.463379 25.2502 0.463379H32.2545V0.464408ZM27.0755 16.5045C27.0755 16.7695 27.1931 16.8572 27.4581 16.8572H32.2555C36.1114 16.8572 37.7294 14.9442 37.7294 10.3819C37.7294 5.8496 36.1114 3.93663 32.2555 3.93663H27.4581C27.1931 3.93663 27.0755 4.02532 27.0755 4.28932V16.5045Z" fill="#FFFDFE"/>
<path d="M46.1166 20.3295H42.2906L49.266 2.67144C50.0013 0.817248 51.3553 0.11084 53.4457 0.11084C55.5061 0.11084 56.8591 0.817248 57.5655 2.67144L64.2759 20.3295H60.42L54.3872 4.34825C54.2109 3.878 53.8871 3.67175 53.4158 3.67175C52.9445 3.67175 52.6207 3.878 52.4155 4.34825L46.1166 20.3295Z" fill="#FFFDFE"/>
<path d="M78.7268 0.464355V3.93761H72.9291V20.3304H69.427V3.93761H63.6293V0.464355H78.7268Z" fill="#FFFDFE"/>
<path d="M81.9351 20.3295H78.1091L85.0845 2.67144C85.8198 0.817248 87.1738 0.11084 89.2642 0.11084C91.3246 0.11084 92.6776 0.817248 93.384 2.67144L100.094 20.3295H96.2385L90.2047 4.34825C90.0283 3.878 89.7045 3.67175 89.2332 3.67175C88.7619 3.67175 88.4381 3.878 88.2329 4.34825L81.9351 20.3295Z" fill="#FFFDFE"/>
<path d="M61.2719 48.7119H57.4459L64.4203 31.0538C65.1566 29.1996 66.5096 28.4932 68.5999 28.4932C70.6604 28.4932 72.0144 29.1996 72.7198 31.0538L79.4301 48.7119H75.5743L69.5415 32.7316C69.3651 32.2613 69.0413 32.0551 68.57 32.0551C68.0998 32.0551 67.776 32.2613 67.5697 32.7316L61.2719 48.7119Z" fill="#FFFDFE"/>
<path d="M81.6668 28.8467L87.2293 37.3524L92.8507 28.8467H96.9705L88.966 40.1481V48.7127H85.4638V40.1481L77.4583 28.8467H81.6668Z" fill="#FFFDFE"/>
<path d="M114.011 28.8467V32.3199H103.828C102.033 32.3199 101.239 33.2914 101.239 34.6743C101.239 35.8808 101.857 37.0286 104.182 37.0286H108.832C114.247 37.0286 115.513 40.0306 115.513 42.8851C115.513 46.2397 113.717 48.7127 109.185 48.7127H98.1195V45.2405H109.302C111.185 45.2405 112.039 44.2102 112.039 42.7675C112.039 41.4733 111.363 40.2956 108.92 40.2956H104.299C99.0012 40.2956 97.7657 37.3225 97.7657 34.5567C97.7657 31.2598 99.5312 28.8467 103.946 28.8467H114.011Z" fill="#FFFDFE"/>
<path d="M3.61256 49.1717H1.04165C0.813744 49.1717 0.62915 48.9871 0.62915 48.7592V0.556543C0.62915 0.328637 0.813744 0.144043 1.04165 0.144043H3.61256C3.84046 0.144043 4.02506 0.328637 4.02506 0.556543V48.7603C4.02506 48.9882 3.84046 49.1717 3.61256 49.1717Z" fill="#FFFDFE"/>
<path d="M9.87745 49.1717H7.30654C7.07864 49.1717 6.89404 48.9871 6.89404 48.7592V0.556543C6.89404 0.328637 7.07864 0.144043 7.30654 0.144043H9.87745C10.1054 0.144043 10.2899 0.328637 10.2899 0.556543V48.7603C10.2899 48.9882 10.1054 49.1717 9.87745 49.1717Z" fill="#FFFDFE"/>
<path d="M16.1484 49.1717H13.5775C13.3496 49.1717 13.165 48.9871 13.165 48.7592V0.556543C13.165 0.328637 13.3496 0.144043 13.5775 0.144043H16.1484C16.3764 0.144043 16.5609 0.328637 16.5609 0.556543V48.7603C16.5609 48.9882 16.3764 49.1717 16.1484 49.1717Z" fill="#FFFDFE"/>
</svg>
