<svg width="116" height="50" viewBox="0 0 116 50" fill="none" xmlns="http://www.w3.org/2000/svg">
<path d="M42.5237 29.3691L49.4104 44.4377L55.2668 29.3103C55.502 28.6627 56.032 28.3389 56.856 28.3389C57.7975 28.3389 58.4451 28.7802 58.4451 29.5753C58.4451 29.7816 58.4163 29.9868 58.2389 30.3993L51.2635 47.7924C50.8809 48.6452 50.4983 48.9989 49.5568 48.9989C48.5565 48.9989 48.1151 48.5576 47.7614 47.7924L40.8747 32.9001L33.988 47.7924C33.6353 48.5576 33.2228 48.9989 32.1926 48.9989C31.2511 48.9989 30.8685 48.6462 30.4859 47.7924L23.5115 30.3993C23.3352 29.9868 23.3053 29.7806 23.3053 29.5753C23.3053 28.7802 23.923 28.3389 24.8945 28.3389C25.7483 28.3389 26.2186 28.6627 26.4836 29.3103L32.3112 44.4078L39.2278 29.3691C39.5217 28.7514 39.9342 28.3389 40.8757 28.3389C41.7874 28.3389 42.2298 28.7503 42.5237 29.3691Z" fill="#FFFDFE"/>
<path d="M32.2545 0.353568C38.0522 0.353568 41.2016 3.59066 41.2016 10.301C41.2016 16.9814 38.0821 20.2196 32.2545 20.2196H25.2502C24.1324 20.2196 23.6023 19.6895 23.6023 18.6005V1.9716C23.6023 0.8826 24.1324 0.352539 25.2502 0.352539H32.2545V0.353568ZM27.0755 16.3936C27.0755 16.6587 27.1931 16.7463 27.4581 16.7463H32.2555C36.1114 16.7463 37.7294 14.8334 37.7294 10.2711C37.7294 5.73876 36.1114 3.82579 32.2555 3.82579H27.4581C27.1931 3.82579 27.0755 3.91448 27.0755 4.17848V16.3936Z" fill="#FFFDFE"/>
<path d="M46.1166 20.2187H42.2906L49.266 2.5606C50.0013 0.706408 51.3553 0 53.4457 0C55.5061 0 56.8591 0.706408 57.5655 2.5606L64.2759 20.2187H60.42L54.3872 4.23741C54.2109 3.76716 53.8871 3.56091 53.4158 3.56091C52.9445 3.56091 52.6207 3.76716 52.4155 4.23741L46.1166 20.2187Z" fill="#FFFDFE"/>
<path d="M78.7268 0.353516V3.82677H72.9291V20.2195H69.427V3.82677H63.6293V0.353516H78.7268Z" fill="#FFFDFE"/>
<path d="M81.9351 20.2187H78.1091L85.0845 2.5606C85.8198 0.706408 87.1738 0 89.2642 0C91.3246 0 92.6776 0.706408 93.384 2.5606L100.094 20.2187H96.2385L90.2047 4.23741C90.0283 3.76716 89.7045 3.56091 89.2332 3.56091C88.7619 3.56091 88.4381 3.76716 88.2329 4.23741L81.9351 20.2187Z" fill="#FFFDFE"/>
<path d="M61.2719 48.6005H57.4459L64.4203 30.9424C65.1566 29.0882 66.5096 28.3818 68.5999 28.3818C70.6604 28.3818 72.0144 29.0882 72.7198 30.9424L79.4301 48.6005H75.5743L69.5415 32.6203C69.3651 32.15 69.0413 31.9438 68.57 31.9438C68.0998 31.9438 67.776 32.15 67.5697 32.6203L61.2719 48.6005Z" fill="#FFFDFE"/>
<path d="M81.6668 28.7363L87.2293 37.2421L92.8507 28.7363H96.9705L88.966 40.0378V48.6023H85.4638V40.0378L77.4583 28.7363H81.6668Z" fill="#FFFDFE"/>
<path d="M114.011 28.7363V32.2096H103.828C102.033 32.2096 101.239 33.181 101.239 34.5639C101.239 35.7705 101.857 36.9183 104.182 36.9183H108.832C114.247 36.9183 115.513 39.9202 115.513 42.7747C115.513 46.1294 113.717 48.6023 109.185 48.6023H98.1195V45.1301H109.302C111.185 45.1301 112.039 44.0999 112.039 42.6572C112.039 41.363 111.363 40.1853 108.92 40.1853H104.299C99.0012 40.1853 97.7657 37.2122 97.7657 34.4464C97.7657 31.1495 99.5312 28.7363 103.946 28.7363H114.011Z" fill="#FFFDFE"/>
<path d="M3.61256 49.0609H1.04165C0.813744 49.0609 0.62915 48.8763 0.62915 48.6484V0.445703C0.62915 0.217797 0.813744 0.0332031 1.04165 0.0332031H3.61256C3.84046 0.0332031 4.02506 0.217797 4.02506 0.445703V48.6494C4.02506 48.8773 3.84046 49.0609 3.61256 49.0609Z" fill="#FFFDFE"/>
<path d="M9.87745 49.0609H7.30654C7.07864 49.0609 6.89404 48.8763 6.89404 48.6484V0.445703C6.89404 0.217797 7.07864 0.0332031 7.30654 0.0332031H9.87745C10.1054 0.0332031 10.2899 0.217797 10.2899 0.445703V48.6494C10.2899 48.8773 10.1054 49.0609 9.87745 49.0609Z" fill="#FFFDFE"/>
<path d="M16.1484 49.0609H13.5775C13.3496 49.0609 13.165 48.8763 13.165 48.6484V0.445703C13.165 0.217797 13.3496 0.0332031 13.5775 0.0332031H16.1484C16.3764 0.0332031 16.5609 0.217797 16.5609 0.445703V48.6494C16.5609 48.8773 16.3764 49.0609 16.1484 49.0609Z" fill="#FFFDFE"/>
</svg>
